<?xml version="1.0" encoding="utf-8"?>
<!-- Generator: Adobe Illustrator 16.0.0, SVG Export Plug-In . SVG Version: 6.00 Build 0)  -->
<!DOCTYPE svg PUBLIC "-//W3C//DTD SVG 1.1//EN" "http://www.w3.org/Graphics/SVG/1.1/DTD/svg11.dtd">
<svg version="1.1" id="Layer_1" xmlns:serif="http://www.serif.com/"
	 xmlns="http://www.w3.org/2000/svg" xmlns:xlink="http://www.w3.org/1999/xlink" x="0px" y="0px" width="274.898px"
	 height="197.688px" viewBox="1004.733 276.358 274.898 197.688" enable-background="new 1004.733 276.358 274.898 197.688"
	 xml:space="preserve">
<g transform="matrix(0.16,0,0,0.159836,0,0)">
	
		<linearGradient id="SVGID_1_" gradientUnits="userSpaceOnUse" x1="6.3965" y1="4999.2666" x2="7.3965" y2="4999.2666" gradientTransform="matrix(1.204618e-014 -196.7288 -196.5272 -1.203384e-014 989631.125 4216.9092)">
		<stop  offset="0" style="stop-color:#04B6F0"/>
		<stop  offset="1" style="stop-color:#3ECAF0"/>
	</linearGradient>
	<path fill="url(#SVGID_1_)" d="M7517.505,1995.559c-811.646,0-1017.566-34.667-1237.921-266.551
		c92.706,139.23,143.426,400.38,1001.312,387.384c895.075-13.79,349.023,230.791,190.143,507.118
		c286.529-255.725,525.793-424.288,526.66-521.763v-1.045C7997.058,2028.387,7863.428,1995.559,7517.505,1995.559z"/>
	
		<linearGradient id="SVGID_2_" gradientUnits="userSpaceOnUse" x1="6.3965" y1="4998.4785" x2="7.3965" y2="4998.4785" gradientTransform="matrix(1.204618e-014 -196.7288 -196.5272 -1.203384e-014 989631.125 4216.9092)">
		<stop  offset="0" style="stop-color:#04B6F0"/>
		<stop  offset="1" style="stop-color:#3ECAF0"/>
	</linearGradient>
	<path fill="url(#SVGID_2_)" d="M7293.536,2720.454c-0.03,0-0.03,0-0.067,0c-67.322,0-122.717,55.409-122.717,122.739v0.098
		c0,67.629,54.944,122.538,122.784,122.538c67.23-0.018,122.528-55.318,122.559-122.538
		C7416.095,2775.375,7361.218,2720.454,7293.536,2720.454z"/>
	
		<linearGradient id="SVGID_3_" gradientUnits="userSpaceOnUse" x1="6.3965" y1="5001.3257" x2="7.3965" y2="5001.3257" gradientTransform="matrix(1.204618e-014 -196.7288 -196.5272 -1.203384e-014 989631.125 4216.9092)">
		<stop  offset="0" style="stop-color:#04B6F0"/>
		<stop  offset="1" style="stop-color:#3ECAF0"/>
	</linearGradient>
	<path fill="url(#SVGID_3_)" d="M6734.595,2720.454c-0.037,0-0.037,0-0.067,0c-67.358,0-122.754,55.409-122.754,122.739v0.098
		c0,67.629,54.914,122.538,122.821,122.538c67.23-0.018,122.528-55.318,122.559-122.538
		C6857.153,2775.375,6802.271,2720.454,6734.595,2720.454z"/>
</g>
</svg>
