<?xml version="1.0" encoding="utf-8"?>
<!-- Generator: Adobe Illustrator 16.0.0, SVG Export Plug-In . SVG Version: 6.00 Build 0)  -->
<!DOCTYPE svg PUBLIC "-//W3C//DTD SVG 1.1//EN" "http://www.w3.org/Graphics/SVG/1.1/DTD/svg11.dtd">
<svg version="1.1" id="Layer_2" xmlns="http://www.w3.org/2000/svg" xmlns:xlink="http://www.w3.org/1999/xlink" x="0px" y="0px"
	 width="94.334px" height="122.333px" viewBox="592.5 338.834 94.334 122.333"
	 enable-background="new 592.5 338.834 94.334 122.333" xml:space="preserve">
<g>
	
		<linearGradient id="SVGID_1_" gradientUnits="userSpaceOnUse" x1="8.7051" y1="786.8948" x2="9.7049" y2="786.8948" gradientTransform="matrix(7.8592 -26.2793 -22.2439 -9.092 18072.4336 7820.9463)">
		<stop  offset="0" style="stop-color:#FF9700"/>
		<stop  offset="0.53" style="stop-color:#F48E00"/>
		<stop  offset="1" style="stop-color:#D06F00"/>
	</linearGradient>
	<path fill="url(#SVGID_1_)" d="M685.78,400.137c0-1.397-1.032-2.203-2.3-1.803L596.3,425.979c-1.27,0.402-2.3,1.864-2.3,3.259
		v28.254c0,1.397,1.03,2.206,2.3,1.803l87.181-27.643c1.268-0.402,2.3-1.863,2.3-3.261V400.137z"/>
	<path fill="#FF9800" d="M594,399.237c0,1.397,1.03,2.858,2.3,3.261l87.193,27.647c1.27,0.403,2.3-0.405,2.3-1.8v-28.257
		c0-1.395-1.03-2.855-2.3-3.259L596.3,369.182c-1.27-0.403-2.3,0.403-2.3,1.8V399.237z"/>
	<path fill="#FF9800" d="M685.78,342.077c0-1.397-1.032-2.205-2.3-1.803L596.3,367.917c-1.27,0.403-2.3,1.864-2.3,3.261v28.255
		c0,1.397,1.03,2.203,2.3,1.803l87.181-27.646c1.268-0.402,2.3-1.863,2.3-3.258V342.077z"/>
</g>
</svg>
