<?xml version="1.0" encoding="utf-8"?>
<!-- Generator: Adobe Illustrator 16.0.0, SVG Export Plug-In . SVG Version: 6.00 Build 0)  -->
<!DOCTYPE svg PUBLIC "-//W3C//DTD SVG 1.1//EN" "http://www.w3.org/Graphics/SVG/1.1/DTD/svg11.dtd">
<svg version="1.1" id="Layer_2" xmlns="http://www.w3.org/2000/svg" xmlns:xlink="http://www.w3.org/1999/xlink" x="0px" y="0px"
	 width="63.253px" height="63.44px" viewBox="0.58 0.07 63.253 63.44" enable-background="new 0.58 0.07 63.253 63.44"
	 xml:space="preserve">
<linearGradient id="SVGID_1_" gradientUnits="userSpaceOnUse" x1="-478.7632" y1="427.2344" x2="-478.7632" y2="428.2344" gradientTransform="matrix(62.4202 0 0 -62.38 29916.2813 26714.3496)">
	<stop  offset="0" style="stop-color:#0052CC"/>
	<stop  offset="1" style="stop-color:#2684FF"/>
</linearGradient>
<path fill="url(#SVGID_1_)" d="M55.59,1.13H8c-4.094,0-7.415,3.315-7.42,7.41v47.52c-0.008,1.973,0.77,3.868,2.163,5.266
	C4.135,62.724,6.027,63.51,8,63.51h47.59c1.972-0.003,3.861-0.79,5.251-2.188S63.008,58.03,63,56.06V8.54
	C62.995,4.449,59.68,1.136,55.59,1.13z M27.5,46.06c-0.002,0.66-0.268,1.291-0.737,1.754C26.294,48.277,25.66,48.534,25,48.53H14.6
	c-1.36-0.006-2.46-1.11-2.46-2.471v-30.95c0-1.36,1.1-2.464,2.46-2.47H25c1.362,0.006,2.464,1.107,2.47,2.47L27.5,46.06z
	 M51.5,31.85c0,0.66-0.264,1.293-0.734,1.757c-0.47,0.465-1.106,0.721-1.766,0.713H38.6c-1.362-0.006-2.465-1.107-2.47-2.47v-16.74
	c0.005-1.362,1.108-2.464,2.47-2.47H49c1.36,0.006,2.46,1.109,2.46,2.47L51.5,31.85z"/>
</svg>
